<svg xmlns="http://www.w3.org/2000/svg" xmlns:xlink="http://www.w3.org/1999/xlink" width="83" zoomAndPan="magnify" viewBox="0 0 62.25 28.499999" height="38" preserveAspectRatio="xMidYMid meet" version="1.0"><defs><g/><clipPath id="27991135d1"><path d="M 5.136719 3 L 11 3 L 11 19 L 5.136719 19 Z M 5.136719 3 " clip-rule="nonzero"/></clipPath><clipPath id="39a45a9251"><path d="M 9 2.21875 L 17 2.21875 L 17 24.15625 L 9 24.15625 Z M 9 2.21875 " clip-rule="nonzero"/></clipPath><clipPath id="3e68d34a8b"><path d="M 10 2.21875 L 14 2.21875 L 14 4 L 10 4 Z M 10 2.21875 " clip-rule="nonzero"/></clipPath><clipPath id="10a8faf3cc"><path d="M 16 4 L 21.28125 4 L 21.28125 19 L 16 19 Z M 16 4 " clip-rule="nonzero"/></clipPath><clipPath id="f9134e2653"><path d="M 5.136719 13 L 8 13 L 8 23 L 5.136719 23 Z M 5.136719 13 " clip-rule="nonzero"/></clipPath><clipPath id="979a848033"><path d="M 19 14 L 21.28125 14 L 21.28125 23 L 19 23 Z M 19 14 " clip-rule="nonzero"/></clipPath><clipPath id="2b4974c15d"><path d="M 0.167969 20.847656 L 7.1875 20.847656 L 7.1875 27.867188 L 0.167969 27.867188 Z M 0.167969 20.847656 " clip-rule="nonzero"/></clipPath><clipPath id="d0dddf6a55"><path d="M 18.785156 0 L 23.523438 0 L 23.523438 4.738281 L 18.785156 4.738281 Z M 18.785156 0 " clip-rule="nonzero"/></clipPath><clipPath id="51b8985c68"><path d="M 21.195312 3.554688 L 25.582031 3.554688 L 25.582031 7.941406 L 21.195312 7.941406 Z M 21.195312 3.554688 " clip-rule="nonzero"/></clipPath></defs><g clip-path="url(#27991135d1)"><path fill="#cb6ce6" d="M 9.488281 4.238281 L 5.140625 6.621094 L 5.140625 18.300781 L 10.902344 18.300781 L 10.902344 3.460938 Z M 9.488281 4.238281 " fill-opacity="1" fill-rule="nonzero"/></g><g clip-path="url(#39a45a9251)"><path fill="#8c52ff" d="M 13.164062 2.21875 L 10.902344 3.460938 L 9.488281 4.238281 L 9.488281 22.84375 C 9.488281 23.566406 10.074219 24.152344 10.796875 24.152344 C 11.519531 24.152344 12.105469 23.566406 12.105469 22.84375 L 12.105469 19.171875 C 12.105469 19.894531 12.691406 20.480469 13.414062 20.480469 C 14.136719 20.480469 14.726562 19.894531 14.726562 19.171875 L 14.726562 16.441406 C 14.726562 15.863281 15.195312 15.394531 15.773438 15.394531 C 16.347656 15.394531 16.816406 15.863281 16.820312 16.441406 L 16.839844 4.234375 Z M 13.164062 2.21875 " fill-opacity="1" fill-rule="nonzero"/></g><path fill="#8c52ff" d="M 13.414062 21.128906 C 13.414062 21.128906 13.414062 21.128906 13.414062 21.132812 C 13.316406 21.515625 12.8125 21.722656 12.8125 22.214844 C 12.8125 22.546875 13.082031 22.820312 13.414062 22.820312 L 13.417969 22.820312 C 13.75 22.820312 14.019531 22.546875 14.019531 22.214844 C 14.019531 21.722656 13.515625 21.515625 13.417969 21.132812 C 13.417969 21.132812 13.417969 21.128906 13.414062 21.128906 Z M 13.414062 21.128906 " fill-opacity="1" fill-rule="nonzero"/><g clip-path="url(#3e68d34a8b)"><path fill="#5e17eb" d="M 10.902344 3.460938 L 13.164062 2.21875 Z M 10.902344 3.460938 " fill-opacity="1" fill-rule="nonzero"/></g><g clip-path="url(#10a8faf3cc)"><path fill="#5e17eb" d="M 16.839844 4.234375 L 16.839844 18.300781 L 21.1875 18.300781 L 21.1875 6.621094 Z M 16.839844 4.234375 " fill-opacity="1" fill-rule="nonzero"/></g><g clip-path="url(#f9134e2653)"><path fill="#cb6ce6" d="M 6.167969 22.296875 C 5.597656 22.296875 5.136719 21.835938 5.136719 21.269531 L 5.136719 13.980469 L 7.195312 13.980469 L 7.195312 21.269531 C 7.195312 21.835938 6.734375 22.296875 6.167969 22.296875 Z M 6.167969 22.296875 " fill-opacity="1" fill-rule="nonzero"/></g><path fill="#cb6ce6" d="M 8.917969 20.085938 C 8.605469 20.085938 8.351562 19.828125 8.351562 19.515625 L 8.351562 10.890625 L 9.488281 10.890625 L 9.488281 19.515625 C 9.488281 19.828125 9.230469 20.085938 8.917969 20.085938 Z M 8.917969 20.085938 " fill-opacity="1" fill-rule="nonzero"/><path fill="#5e17eb" d="M 17.765625 20.195312 C 17.242188 20.195312 16.820312 19.773438 16.820312 19.253906 L 16.820312 9.671875 L 18.710938 9.671875 L 18.710938 19.253906 C 18.710938 19.773438 18.285156 20.195312 17.765625 20.195312 Z M 17.765625 20.195312 " fill-opacity="1" fill-rule="nonzero"/><path fill="#ffffff" d="M 11.25 8.253906 L 12.929688 8.253906 L 12.929688 9.933594 L 11.25 9.933594 Z M 11.25 8.253906 " fill-opacity="1" fill-rule="nonzero"/><path fill="#ffffff" d="M 13.394531 8.253906 L 15.074219 8.253906 L 15.074219 9.933594 L 13.394531 9.933594 Z M 13.394531 8.253906 " fill-opacity="1" fill-rule="nonzero"/><path fill="#ffffff" d="M 11.25 10.34375 L 12.929688 10.34375 L 12.929688 12.023438 L 11.25 12.023438 Z M 11.25 10.34375 " fill-opacity="1" fill-rule="nonzero"/><path fill="#ffffff" d="M 13.394531 10.34375 L 15.074219 10.34375 L 15.074219 12.023438 L 13.394531 12.023438 Z M 13.394531 10.34375 " fill-opacity="1" fill-rule="nonzero"/><path fill="#ffffff" d="M 7.773438 17.804688 C 7.453125 17.804688 7.195312 18.0625 7.195312 18.378906 L 7.195312 19.71875 L 8.351562 19.71875 L 8.351562 18.378906 C 8.351562 18.0625 8.089844 17.804688 7.773438 17.804688 Z M 7.773438 17.804688 " fill-opacity="1" fill-rule="nonzero"/><g clip-path="url(#979a848033)"><path fill="#5e17eb" d="M 20.480469 22.007812 C 20.09375 22.007812 19.777344 21.691406 19.777344 21.300781 L 19.777344 14.949219 L 21.1875 14.949219 L 21.1875 21.300781 C 21.1875 21.691406 20.871094 22.007812 20.480469 22.007812 Z M 20.480469 22.007812 " fill-opacity="1" fill-rule="nonzero"/></g><path fill="#ffffff" d="M 19.242188 17.730469 C 18.949219 17.730469 18.710938 17.96875 18.710938 18.261719 L 18.710938 19.019531 L 19.777344 19.019531 L 19.777344 18.261719 C 19.777344 17.96875 19.539062 17.730469 19.242188 17.730469 Z M 19.242188 17.730469 " fill-opacity="1" fill-rule="nonzero"/><path fill="#5e17eb" d="M 18.363281 21.128906 C 18.363281 21.292969 18.304688 21.433594 18.1875 21.550781 C 18.070312 21.667969 17.929688 21.726562 17.765625 21.726562 C 17.597656 21.726562 17.457031 21.667969 17.339844 21.550781 C 17.222656 21.433594 17.164062 21.292969 17.164062 21.128906 C 17.164062 20.964844 17.222656 20.824219 17.339844 20.707031 C 17.457031 20.589844 17.597656 20.53125 17.765625 20.53125 C 17.929688 20.53125 18.070312 20.589844 18.1875 20.707031 C 18.304688 20.824219 18.363281 20.964844 18.363281 21.128906 Z M 18.363281 21.128906 " fill-opacity="1" fill-rule="nonzero"/><g clip-path="url(#2b4974c15d)"><path fill="#5e17eb" d="M 7.167969 24.347656 C 3.953125 24.503906 3.824219 24.628906 3.667969 27.847656 C 3.511719 24.628906 3.382812 24.503906 0.167969 24.347656 C 3.382812 24.191406 3.511719 24.0625 3.667969 20.847656 C 3.824219 24.0625 3.953125 24.191406 7.167969 24.347656 Z M 7.167969 24.347656 " fill-opacity="1" fill-rule="nonzero"/></g><g clip-path="url(#d0dddf6a55)"><path fill="#cb6ce6" d="M 23.605469 2.410156 C 21.390625 2.519531 21.300781 2.605469 21.195312 4.820312 C 21.085938 2.605469 21 2.519531 18.785156 2.410156 C 21 2.300781 21.085938 2.214844 21.195312 0 C 21.300781 2.214844 21.390625 2.300781 23.605469 2.410156 Z M 23.605469 2.410156 " fill-opacity="1" fill-rule="nonzero"/></g><g clip-path="url(#51b8985c68)"><path fill="#8c52ff" d="M 23.367188 3.558594 C 22.96875 4.953125 22.5625 5.28125 21.199219 5.726562 C 22.5625 6.167969 22.921875 6.527344 23.367188 7.894531 C 23.808594 6.527344 24.089844 6.125 25.53125 5.726562 C 24.089844 5.320312 23.808594 4.921875 23.367188 3.558594 Z M 23.367188 3.558594 " fill-opacity="1" fill-rule="nonzero"/></g><g fill="#545454" fill-opacity="1"><g transform="translate(23.60743, 16.16211)"><g><path d="M 1.6875 0.09375 C 1.476562 0.09375 1.285156 0.0625 1.109375 0 C 0.941406 -0.0703125 0.796875 -0.164062 0.671875 -0.28125 C 0.546875 -0.40625 0.445312 -0.550781 0.375 -0.71875 C 0.3125 -0.882812 0.28125 -1.0625 0.28125 -1.25 L 0.28125 -2 C 0.28125 -2.1875 0.3125 -2.363281 0.375 -2.53125 C 0.445312 -2.695312 0.546875 -2.835938 0.671875 -2.953125 C 0.796875 -3.078125 0.941406 -3.171875 1.109375 -3.234375 C 1.285156 -3.304688 1.476562 -3.34375 1.6875 -3.34375 C 1.875 -3.34375 2.039062 -3.316406 2.1875 -3.265625 C 2.34375 -3.210938 2.472656 -3.144531 2.578125 -3.0625 C 2.679688 -2.988281 2.757812 -2.90625 2.8125 -2.8125 C 2.875 -2.726562 2.90625 -2.648438 2.90625 -2.578125 C 2.90625 -2.484375 2.867188 -2.40625 2.796875 -2.34375 C 2.734375 -2.28125 2.648438 -2.25 2.546875 -2.25 C 2.460938 -2.25 2.394531 -2.269531 2.34375 -2.3125 C 2.289062 -2.363281 2.238281 -2.414062 2.1875 -2.46875 C 2.132812 -2.519531 2.070312 -2.566406 2 -2.609375 C 1.925781 -2.660156 1.820312 -2.6875 1.6875 -2.6875 C 1.488281 -2.6875 1.332031 -2.625 1.21875 -2.5 C 1.101562 -2.382812 1.046875 -2.21875 1.046875 -2 L 1.046875 -1.25 C 1.046875 -1.03125 1.101562 -0.859375 1.21875 -0.734375 C 1.332031 -0.617188 1.488281 -0.5625 1.6875 -0.5625 C 1.832031 -0.5625 1.941406 -0.582031 2.015625 -0.625 C 2.097656 -0.675781 2.164062 -0.726562 2.21875 -0.78125 C 2.28125 -0.84375 2.335938 -0.894531 2.390625 -0.9375 C 2.441406 -0.988281 2.507812 -1.015625 2.59375 -1.015625 C 2.695312 -1.015625 2.78125 -0.984375 2.84375 -0.921875 C 2.914062 -0.859375 2.953125 -0.785156 2.953125 -0.703125 C 2.953125 -0.617188 2.921875 -0.53125 2.859375 -0.4375 C 2.796875 -0.351562 2.710938 -0.269531 2.609375 -0.1875 C 2.503906 -0.101562 2.375 -0.0351562 2.21875 0.015625 C 2.0625 0.0664062 1.882812 0.09375 1.6875 0.09375 Z M 1.6875 0.09375 "/></g></g></g><g fill="#545454" fill-opacity="1"><g transform="translate(26.690225, 16.16211)"><g><path d="M 0.703125 0 C 0.585938 0 0.492188 -0.03125 0.421875 -0.09375 C 0.359375 -0.164062 0.328125 -0.25 0.328125 -0.34375 L 0.328125 -2.953125 C 0.328125 -3.046875 0.359375 -3.125 0.421875 -3.1875 C 0.492188 -3.257812 0.585938 -3.296875 0.703125 -3.296875 C 0.804688 -3.296875 0.890625 -3.257812 0.953125 -3.1875 C 1.023438 -3.125 1.0625 -3.046875 1.0625 -2.953125 L 1.0625 -0.65625 L 2.25 -0.65625 C 2.363281 -0.65625 2.453125 -0.625 2.515625 -0.5625 C 2.585938 -0.5 2.625 -0.421875 2.625 -0.328125 C 2.625 -0.234375 2.585938 -0.15625 2.515625 -0.09375 C 2.453125 -0.03125 2.363281 0 2.25 0 Z M 0.703125 0 "/></g></g></g><g fill="#545454" fill-opacity="1"><g transform="translate(29.309442, 16.16211)"><g><path d="M 0.703125 0 C 0.585938 0 0.492188 -0.03125 0.421875 -0.09375 C 0.359375 -0.164062 0.328125 -0.25 0.328125 -0.34375 L 0.328125 -2.90625 C 0.328125 -3 0.359375 -3.078125 0.421875 -3.140625 C 0.492188 -3.210938 0.585938 -3.25 0.703125 -3.25 L 2.484375 -3.25 C 2.597656 -3.25 2.6875 -3.21875 2.75 -3.15625 C 2.820312 -3.09375 2.859375 -3.015625 2.859375 -2.921875 C 2.859375 -2.828125 2.820312 -2.75 2.75 -2.6875 C 2.6875 -2.625 2.597656 -2.59375 2.484375 -2.59375 L 1.0625 -2.59375 L 1.0625 -1.953125 L 2.0625 -1.953125 C 2.175781 -1.953125 2.265625 -1.921875 2.328125 -1.859375 C 2.398438 -1.796875 2.4375 -1.71875 2.4375 -1.625 C 2.4375 -1.53125 2.398438 -1.453125 2.328125 -1.390625 C 2.265625 -1.328125 2.175781 -1.296875 2.0625 -1.296875 L 1.0625 -1.296875 L 1.0625 -0.65625 L 2.53125 -0.65625 C 2.644531 -0.65625 2.734375 -0.625 2.796875 -0.5625 C 2.867188 -0.5 2.90625 -0.421875 2.90625 -0.328125 C 2.90625 -0.234375 2.867188 -0.15625 2.796875 -0.09375 C 2.734375 -0.03125 2.644531 0 2.53125 0 Z M 0.703125 0 "/></g></g></g><g fill="#545454" fill-opacity="1"><g transform="translate(32.299521, 16.16211)"><g><path d="M 0.4375 0.046875 C 0.332031 0.046875 0.242188 0.015625 0.171875 -0.046875 C 0.0976562 -0.117188 0.0625 -0.203125 0.0625 -0.296875 C 0.0625 -0.328125 0.0664062 -0.363281 0.078125 -0.40625 C 0.0859375 -0.445312 0.0976562 -0.484375 0.109375 -0.515625 C 0.128906 -0.554688 0.144531 -0.601562 0.15625 -0.65625 L 1.046875 -2.921875 C 1.097656 -3.054688 1.164062 -3.160156 1.25 -3.234375 C 1.332031 -3.304688 1.445312 -3.34375 1.59375 -3.34375 C 1.75 -3.34375 1.867188 -3.304688 1.953125 -3.234375 C 2.035156 -3.160156 2.101562 -3.054688 2.15625 -2.921875 L 3.046875 -0.65625 C 3.054688 -0.601562 3.070312 -0.554688 3.09375 -0.515625 C 3.101562 -0.484375 3.109375 -0.445312 3.109375 -0.40625 C 3.117188 -0.363281 3.125 -0.328125 3.125 -0.296875 C 3.125 -0.203125 3.085938 -0.117188 3.015625 -0.046875 C 2.953125 0.015625 2.867188 0.046875 2.765625 0.046875 C 2.660156 0.046875 2.578125 0.0195312 2.515625 -0.03125 C 2.453125 -0.09375 2.398438 -0.175781 2.359375 -0.28125 L 2.203125 -0.71875 L 1 -0.71875 L 0.828125 -0.28125 C 0.796875 -0.175781 0.75 -0.09375 0.6875 -0.03125 C 0.625 0.0195312 0.539062 0.046875 0.4375 0.046875 Z M 2 -1.375 L 1.625 -2.453125 L 1.578125 -2.453125 L 1.203125 -1.375 Z M 2 -1.375 "/></g></g></g><g fill="#545454" fill-opacity="1"><g transform="translate(35.498211, 16.16211)"><g><path d="M 0.703125 0.046875 C 0.585938 0.046875 0.492188 0.015625 0.421875 -0.046875 C 0.359375 -0.117188 0.328125 -0.203125 0.328125 -0.296875 L 0.328125 -2.953125 C 0.328125 -3.046875 0.363281 -3.125 0.4375 -3.1875 C 0.507812 -3.257812 0.601562 -3.296875 0.71875 -3.296875 C 0.820312 -3.296875 0.910156 -3.265625 0.984375 -3.203125 C 1.054688 -3.140625 1.125 -3.0625 1.1875 -2.96875 L 2.28125 -1.328125 L 2.3125 -1.328125 L 2.3125 -2.953125 C 2.3125 -3.046875 2.347656 -3.125 2.421875 -3.1875 C 2.492188 -3.257812 2.582031 -3.296875 2.6875 -3.296875 C 2.789062 -3.296875 2.878906 -3.257812 2.953125 -3.1875 C 3.023438 -3.125 3.0625 -3.046875 3.0625 -2.953125 L 3.0625 -0.296875 C 3.0625 -0.203125 3.023438 -0.117188 2.953125 -0.046875 C 2.878906 0.015625 2.785156 0.046875 2.671875 0.046875 C 2.566406 0.046875 2.476562 0.015625 2.40625 -0.046875 C 2.332031 -0.109375 2.265625 -0.1875 2.203125 -0.28125 L 1.109375 -1.921875 L 1.0625 -1.921875 L 1.0625 -0.296875 C 1.0625 -0.203125 1.023438 -0.117188 0.953125 -0.046875 C 0.890625 0.015625 0.804688 0.046875 0.703125 0.046875 Z M 0.703125 0.046875 "/></g></g></g><g fill="#545454" fill-opacity="1"><g transform="translate(38.88233, 16.16211)"><g/></g></g><g fill="#545454" fill-opacity="1"><g transform="translate(40.110812, 16.16211)"><g><path d="M 0.703125 0.046875 C 0.585938 0.046875 0.492188 0.015625 0.421875 -0.046875 C 0.359375 -0.117188 0.328125 -0.203125 0.328125 -0.296875 L 0.328125 -2.953125 C 0.328125 -3.046875 0.359375 -3.125 0.421875 -3.1875 C 0.492188 -3.257812 0.585938 -3.296875 0.703125 -3.296875 C 0.804688 -3.296875 0.890625 -3.257812 0.953125 -3.1875 C 1.023438 -3.125 1.0625 -3.046875 1.0625 -2.953125 L 1.0625 -1.953125 L 2.28125 -1.953125 L 2.28125 -2.953125 C 2.28125 -3.046875 2.3125 -3.125 2.375 -3.1875 C 2.445312 -3.257812 2.535156 -3.296875 2.640625 -3.296875 C 2.742188 -3.296875 2.832031 -3.257812 2.90625 -3.1875 C 2.976562 -3.125 3.015625 -3.046875 3.015625 -2.953125 L 3.015625 -0.296875 C 3.015625 -0.203125 2.976562 -0.117188 2.90625 -0.046875 C 2.832031 0.015625 2.742188 0.046875 2.640625 0.046875 C 2.535156 0.046875 2.445312 0.015625 2.375 -0.046875 C 2.3125 -0.117188 2.28125 -0.203125 2.28125 -0.296875 L 2.28125 -1.296875 L 1.0625 -1.296875 L 1.0625 -0.296875 C 1.0625 -0.203125 1.023438 -0.117188 0.953125 -0.046875 C 0.890625 0.015625 0.804688 0.046875 0.703125 0.046875 Z M 0.703125 0.046875 "/></g></g></g><g fill="#545454" fill-opacity="1"><g transform="translate(43.448574, 16.16211)"><g><path d="M 1.6875 0.09375 C 1.476562 0.09375 1.285156 0.0625 1.109375 0 C 0.941406 -0.0703125 0.796875 -0.164062 0.671875 -0.28125 C 0.546875 -0.40625 0.445312 -0.550781 0.375 -0.71875 C 0.3125 -0.882812 0.28125 -1.0625 0.28125 -1.25 L 0.28125 -2 C 0.28125 -2.1875 0.3125 -2.363281 0.375 -2.53125 C 0.445312 -2.695312 0.546875 -2.835938 0.671875 -2.953125 C 0.796875 -3.078125 0.941406 -3.171875 1.109375 -3.234375 C 1.285156 -3.304688 1.476562 -3.34375 1.6875 -3.34375 C 1.894531 -3.34375 2.085938 -3.304688 2.265625 -3.234375 C 2.441406 -3.171875 2.59375 -3.078125 2.71875 -2.953125 C 2.84375 -2.835938 2.9375 -2.695312 3 -2.53125 C 3.070312 -2.363281 3.109375 -2.1875 3.109375 -2 L 3.109375 -1.25 C 3.109375 -1.0625 3.070312 -0.882812 3 -0.71875 C 2.9375 -0.550781 2.84375 -0.40625 2.71875 -0.28125 C 2.59375 -0.164062 2.441406 -0.0703125 2.265625 0 C 2.085938 0.0625 1.894531 0.09375 1.6875 0.09375 Z M 1.6875 -0.5625 C 1.882812 -0.5625 2.039062 -0.617188 2.15625 -0.734375 C 2.28125 -0.859375 2.34375 -1.03125 2.34375 -1.25 L 2.34375 -2 C 2.34375 -2.21875 2.28125 -2.382812 2.15625 -2.5 C 2.039062 -2.625 1.882812 -2.6875 1.6875 -2.6875 C 1.488281 -2.6875 1.332031 -2.625 1.21875 -2.5 C 1.101562 -2.382812 1.046875 -2.21875 1.046875 -2 L 1.046875 -1.25 C 1.046875 -1.03125 1.101562 -0.859375 1.21875 -0.734375 C 1.332031 -0.617188 1.488281 -0.5625 1.6875 -0.5625 Z M 1.6875 -0.5625 "/></g></g></g><g fill="#545454" fill-opacity="1"><g transform="translate(46.832694, 16.16211)"><g><path d="M 0.703125 0.046875 C 0.585938 0.046875 0.492188 0.015625 0.421875 -0.046875 C 0.359375 -0.117188 0.328125 -0.203125 0.328125 -0.296875 L 0.328125 -2.90625 C 0.328125 -3.007812 0.363281 -3.097656 0.4375 -3.171875 C 0.519531 -3.253906 0.625 -3.296875 0.75 -3.296875 C 0.875 -3.296875 0.976562 -3.257812 1.0625 -3.1875 C 1.144531 -3.125 1.207031 -3.046875 1.25 -2.953125 L 2.09375 -1.28125 L 2.140625 -1.28125 L 2.96875 -2.953125 C 3.019531 -3.046875 3.082031 -3.125 3.15625 -3.1875 C 3.238281 -3.257812 3.347656 -3.296875 3.484375 -3.296875 C 3.597656 -3.296875 3.691406 -3.253906 3.765625 -3.171875 C 3.847656 -3.097656 3.890625 -3.007812 3.890625 -2.90625 L 3.890625 -0.296875 C 3.890625 -0.203125 3.851562 -0.117188 3.78125 -0.046875 C 3.71875 0.015625 3.632812 0.046875 3.53125 0.046875 C 3.425781 0.046875 3.335938 0.015625 3.265625 -0.046875 C 3.191406 -0.117188 3.15625 -0.203125 3.15625 -0.296875 L 3.15625 -1.78125 L 3.109375 -1.78125 L 2.546875 -0.671875 C 2.492188 -0.566406 2.429688 -0.484375 2.359375 -0.421875 C 2.296875 -0.359375 2.210938 -0.328125 2.109375 -0.328125 C 2.003906 -0.328125 1.914062 -0.359375 1.84375 -0.421875 C 1.78125 -0.484375 1.722656 -0.566406 1.671875 -0.671875 L 1.109375 -1.78125 L 1.0625 -1.78125 L 1.0625 -0.296875 C 1.0625 -0.203125 1.023438 -0.117188 0.953125 -0.046875 C 0.890625 0.015625 0.804688 0.046875 0.703125 0.046875 Z M 0.703125 0.046875 "/></g></g></g><g fill="#545454" fill-opacity="1"><g transform="translate(51.051253, 16.16211)"><g><path d="M 0.703125 0 C 0.585938 0 0.492188 -0.03125 0.421875 -0.09375 C 0.359375 -0.164062 0.328125 -0.25 0.328125 -0.34375 L 0.328125 -2.90625 C 0.328125 -3 0.359375 -3.078125 0.421875 -3.140625 C 0.492188 -3.210938 0.585938 -3.25 0.703125 -3.25 L 2.484375 -3.25 C 2.597656 -3.25 2.6875 -3.21875 2.75 -3.15625 C 2.820312 -3.09375 2.859375 -3.015625 2.859375 -2.921875 C 2.859375 -2.828125 2.820312 -2.75 2.75 -2.6875 C 2.6875 -2.625 2.597656 -2.59375 2.484375 -2.59375 L 1.0625 -2.59375 L 1.0625 -1.953125 L 2.0625 -1.953125 C 2.175781 -1.953125 2.265625 -1.921875 2.328125 -1.859375 C 2.398438 -1.796875 2.4375 -1.71875 2.4375 -1.625 C 2.4375 -1.53125 2.398438 -1.453125 2.328125 -1.390625 C 2.265625 -1.328125 2.175781 -1.296875 2.0625 -1.296875 L 1.0625 -1.296875 L 1.0625 -0.65625 L 2.53125 -0.65625 C 2.644531 -0.65625 2.734375 -0.625 2.796875 -0.5625 C 2.867188 -0.5 2.90625 -0.421875 2.90625 -0.328125 C 2.90625 -0.234375 2.867188 -0.15625 2.796875 -0.09375 C 2.734375 -0.03125 2.644531 0 2.53125 0 Z M 0.703125 0 "/></g></g></g></svg>